<?xml version="1.0" encoding="utf-8"?>
<!-- Svg Vector Icons : http://www.onlinewebfonts.com/icon -->
<!DOCTYPE svg PUBLIC "-//W3C//DTD SVG 1.1//EN" "http://www.w3.org/Graphics/SVG/1.1/DTD/svg11.dtd">
<svg version="1.1" xmlns="http://www.w3.org/2000/svg" xmlns:xlink="http://www.w3.org/1999/xlink" x="0px" y="0px" viewBox="0 0 1000 1000" enable-background="new 0 0 1000 1000" xml:space="preserve">
<metadata> Svg Vector Icons : http://www.onlinewebfonts.com/icon </metadata>
<g><path d="M699.2,10h-24.1h-60.3H156.1c-39.9,0-72.3,30.8-72.3,68.8v842.3c0,37.9,32.4,68.8,72.3,68.8h687.8c39.9,0,72.3-30.8,72.3-68.8V252.3L699.2,10L699.2,10z M783.6,231.7h-83.1v-99.1L783.6,231.7L783.6,231.7z M830,915.7H171.4c-6.7,0-11.9-4.5-11.9-8.5V91.8c0-4,5.1-8.5,11.9-8.5H619V261c0,32.7,26.6,59.2,59.2,59.2h163.6v587C841.8,911.3,836.7,915.7,830,915.7L830,915.7z"/><path d="M555.8,308.2c0,20.8-16.8,37.7-37.7,37.7H314.5c-20.8,0-37.7-16.8-37.7-37.7l0,0c0-20.8,16.8-37.7,37.7-37.7h203.6C538.8,270.6,555.8,287.4,555.8,308.2L555.8,308.2z"/><path d="M732.9,495.4c0,20.8-16.8,37.7-37.7,37.7H317.5c-20.8,0-37.7-16.8-37.7-37.7l0,0c0-20.8,16.8-37.7,37.7-37.7h377.8C716,457.7,732.9,474.5,732.9,495.4L732.9,495.4z"/><path d="M732.9,682.5c0,20.8-16.8,37.7-37.7,37.7H317.5c-20.8,0-37.7-16.8-37.7-37.7l0,0c0-20.8,16.8-37.7,37.7-37.7h377.8C716,644.8,732.9,661.8,732.9,682.5L732.9,682.5z"/></g>
</svg>