<?xml version="1.0" encoding="utf-8"?>
<!-- Svg Vector Icons : http://www.onlinewebfonts.com/icon -->
<!DOCTYPE svg PUBLIC "-//W3C//DTD SVG 1.1//EN" "http://www.w3.org/Graphics/SVG/1.1/DTD/svg11.dtd">
<svg version="1.1" xmlns="http://www.w3.org/2000/svg" xmlns:xlink="http://www.w3.org/1999/xlink" x="0px" y="0px" viewBox="0 0 1000 1000" enable-background="new 0 0 1000 1000" xml:space="preserve">
<metadata> Svg Vector Icons : http://www.onlinewebfonts.com/icon </metadata>
<g><path d="M380.4,706.3c1.6,2.1,3.4,4.1,5.3,6c10.6,10.6,24.2,16.5,38.2,17.7c17.6,1.7,35.7-4.2,49.2-17.7c1.9-1.9,3.7-3.9,5.3-6l303.5-303.5c24-24,24-62.7,0-86.7c-23.9-23.9-62.7-23.9-86.7,0L429.3,582L294,446.7c-23.9-23.9-62.6-23.9-86.6,0.1c-23.9,23.9-23.9,62.7-0.1,86.6L380.4,706.3z M500,990C229.4,990,10,770.6,10,500S229.4,10,500,10s490,219.4,490,490S770.6,990,500,990z M500,112.1c-214.2,0-387.9,173.7-387.9,387.9c0,214.2,173.7,387.9,387.9,387.9c214.3,0,387.9-173.7,387.9-387.9C887.9,285.8,714.3,112.1,500,112.1z"/></g>
</svg>