<?xml version="1.0" encoding="iso-8859-1"?>
<!-- Generator: Adobe Illustrator 19.0.0, SVG Export Plug-In . SVG Version: 6.00 Build 0)  -->
<svg version="1.1" id="Capa_1" xmlns="http://www.w3.org/2000/svg" xmlns:xlink="http://www.w3.org/1999/xlink" x="0px" y="0px"
	 viewBox="0 0 512 512" style="enable-background:new 0 0 512 512;" xml:space="preserve">
<g>
	<g>
		<path d="M497,51H15C6.716,51,0,57.716,0,66v380c0,8.284,6.716,15,15,15h482c8.284,0,15-6.716,15-15V66
			C512,57.716,505.284,51,497,51z M482,431H30V171h452V431z M482,141H30V81h452V141z"/>
	</g>
</g>
<g>
	<g>
		<path d="M126,96H66c-8.284,0-15,6.716-15,15s6.716,15,15,15h60c8.284,0,15-6.716,15-15S134.284,96,126,96z"/>
	</g>
</g>
<g>
	<g>
		<path d="M256,206c-52.383,0-95,42.617-95,95c0,52.33,42.583,95,95,95c52.383,0,95-42.617,95-95C351,248.63,308.374,206,256,206z
			 M191,301c0-35.841,29.159-65,65-65c12.497,0,24.177,3.553,34.096,9.691l-89.405,89.405C194.553,325.177,191,313.497,191,301z
			 M256,366c-12.497,0-24.177-3.553-34.096-9.691l89.405-89.405C317.447,276.823,321,288.503,321,301
			C321,336.841,291.841,366,256,366z"/>
	</g>
</g>
<g>
</g>
<g>
</g>
<g>
</g>
<g>
</g>
<g>
</g>
<g>
</g>
<g>
</g>
<g>
</g>
<g>
</g>
<g>
</g>
<g>
</g>
<g>
</g>
<g>
</g>
<g>
</g>
<g>
</g>
</svg>
