<?xml version="1.0" encoding="utf-8"?>
<!-- Svg Vector Icons : http://www.onlinewebfonts.com/icon -->
<!DOCTYPE svg PUBLIC "-//W3C//DTD SVG 1.1//EN" "http://www.w3.org/Graphics/SVG/1.1/DTD/svg11.dtd">
<svg version="1.1" xmlns="http://www.w3.org/2000/svg" xmlns:xlink="http://www.w3.org/1999/xlink" x="0px" y="0px" viewBox="0 0 1000 1000" enable-background="new 0 0 1000 1000" xml:space="preserve">
<metadata> Svg Vector Icons : http://www.onlinewebfonts.com/icon </metadata>
<g><path d="M955.3,919.4H44.7c-19.2,0-34.7-15.5-34.7-34.7V115.3c0-19.2,15.5-34.7,34.7-34.7c19.2,0,34.7,15.5,34.7,34.7V850h875.8c19.2,0,34.7,15.5,34.7,34.7C990,903.9,974.5,919.4,955.3,919.4z"/><path d="M148.4,746.5c-7.2,0-14.5-2.3-20.8-6.9c-15.4-11.5-18.5-33.2-7-48.6l210-280.5c11.1-14.8,31.8-18.3,47.2-8L565,528.5l331.2-263.8c15-11.9,36.8-9.5,48.8,5.5c11.9,15,9.5,36.8-5.5,48.8L588.4,598.7c-11.9,9.4-28.5,10.1-41,1.6L366.4,478.5L176.2,732.6C169.4,741.7,159,746.5,148.4,746.5z"/></g>
</svg>